<?xml version="1.0" standalone="no"?>
<!DOCTYPE svg PUBLIC "-//W3C//DTD SVG 20010904//EN"
        "http://www.w3.org/TR/2001/REC-SVG-20010904/DTD/svg10.dtd">
<svg version="1.0" xmlns="http://www.w3.org/2000/svg"
     width="200.000000pt" height="200.000000pt" viewBox="0 0 200.000000 200.000000"
     preserveAspectRatio="xMidYMid meet">
    <metadata>
        Created by potrace 1.14, written by Peter Selinger 2001-2017
    </metadata>
    <g transform="translate(0.000000,200.000000) scale(0.100000,-0.100000)"
       fill="#000000" stroke="none">
        <path d="M0 1000 l0 -1000 1000 0 1000 0 0 1000 0 1000 -1000 0 -1000 0 0
-1000z m948 335 c15 -12 37 -26 50 -30 13 -4 31 -20 41 -36 9 -15 29 -37 43
-48 14 -12 29 -32 32 -45 5 -20 14 -26 49 -31 23 -3 62 -6 87 -5 240 3 259 -1
285 -57 15 -31 15 -40 -4 -131 -19 -94 -19 -98 -2 -112 50 -41 55 -108 11
-152 l-30 -30 -98 6 c-138 8 -153 8 -168 -5 -10 -8 -37 -9 -86 -4 -77 7 -99
15 -136 48 -22 21 -23 21 -36 1 -8 -11 -35 -30 -61 -43 -79 -39 -189 -17 -217
44 -10 22 -15 23 -59 18 -55 -6 -93 11 -104 48 -4 12 -20 33 -36 46 -17 15
-31 39 -35 60 -4 20 -15 44 -25 54 -29 29 -34 67 -14 108 10 20 17 53 16 73
-2 29 4 44 29 70 17 18 38 49 48 68 11 22 28 39 47 45 17 6 40 19 53 30 24 21
78 29 215 32 67 1 81 -2 105 -22z"/>
        <path d="M877 1273 c-11 -10 -8 -43 3 -43 6 0 10 11 10 25 0 26 -2 29 -13 18z"/>
        <path d="M687 1263 c-4 -6 0 -18 7 -28 8 -11 16 -14 19 -8 4 6 0 18 -7 28 -8
11 -16 14 -19 8z"/>
        <path d="M782 1256 c1 -10 8 -17 13 -17 15 1 12 24 -3 29 -9 3 -13 -2 -10 -12z"/>
        <path d="M946 1214 c-11 -27 -7 -37 9 -24 16 14 20 40 6 40 -5 0 -12 -7 -15
-16z"/>
        <path d="M613 1193 c9 -9 19 -14 23 -11 10 10 -6 28 -24 28 -15 0 -15 -1 1
-17z"/>
        <path d="M690 1161 c-97 -51 -122 -128 -73 -223 8 -17 36 -39 72 -58 46 -23
61 -36 70 -62 29 -84 33 -88 79 -88 35 0 49 6 73 29 35 35 37 65 7 120 l-21
40 28 43 c47 70 31 157 -38 198 -43 27 -148 27 -197 1z m177 -12 c31 -11 63
-66 63 -107 0 -18 -12 -53 -26 -78 -14 -24 -24 -51 -21 -58 3 -8 -1 -17 -9
-20 -9 -4 -18 3 -24 20 -15 38 -12 63 10 91 22 28 26 69 10 93 -9 13 -13 12
-30 -9 -11 -13 -20 -38 -20 -57 0 -18 -4 -36 -10 -39 -6 -4 -10 8 -10 27 0 19
-7 43 -15 54 -15 19 -15 19 -35 -5 -25 -29 -25 -42 0 -73 27 -35 13 -43 -22
-13 -35 29 -41 30 -58 10 -20 -25 19 -71 56 -68 23 2 33 -4 47 -28 22 -39 12
-57 -17 -31 -11 11 -40 29 -63 41 -50 25 -73 56 -80 109 -15 112 125 189 254
141z m-16 -132 c-13 -13 -15 21 -3 50 6 15 8 13 10 -11 2 -16 -1 -33 -7 -39z
m-71 -12 l0 -29 -16 22 c-9 13 -13 31 -9 43 9 29 25 6 25 -36z m-66 -44 c10
-11 13 -21 7 -25 -12 -8 -43 22 -36 35 8 12 9 12 29 -10z m110 -36 c9 -47 9
-50 -6 -53 -20 -4 -51 57 -37 74 20 24 36 15 43 -21z m75 -60 c-3 -2 -31 -16
-63 -30 -37 -16 -56 -21 -54 -13 5 13 109 60 117 52 2 -2 2 -6 0 -9z m-3 -42
c-43 -22 -106 -43 -106 -35 0 5 23 16 50 26 28 10 53 22 56 27 3 5 10 6 16 3
6 -4 0 -13 -16 -21z m19 -23 c-6 -10 -91 -50 -108 -50 -18 0 3 14 56 37 61 26
60 26 52 13z"/>
        <path d="M1000 1145 c-7 -9 -11 -18 -8 -20 9 -10 38 7 38 21 0 18 -14 18 -30
-1z"/>
        <path d="M540 1122 c0 -12 19 -26 26 -19 2 2 -2 10 -11 17 -9 8 -15 8 -15 2z"/>
        <path d="M1090 1050 c-29 -29 -53 -124 -47 -183 11 -88 63 -143 97 -103 11 14
15 13 32 -10 14 -17 24 -22 31 -15 6 6 3 18 -11 36 -19 24 -21 35 -15 104 7
94 -1 145 -28 172 -24 24 -34 24 -59 -1z m48 -35 c13 -27 16 -125 6 -162 -4
-14 -14 -23 -25 -23 -23 0 -25 -16 -2 -24 13 -5 14 -9 4 -19 -9 -9 -14 -9 -21
3 -34 52 -35 148 -2 216 19 41 25 42 40 9z"/>
        <path d="M1337 1064 c-9 -9 -9 -191 -1 -261 5 -34 12 -53 20 -53 11 0 12 30 7
153 -5 144 -11 176 -26 161z"/>
        <path d="M1194 1035 c-12 -47 1 -208 19 -242 19 -35 46 -43 67 -18 13 16 36
236 26 260 -14 36 -24 8 -30 -82 -9 -118 -16 -163 -26 -163 -15 0 -30 90 -30
179 0 88 -12 120 -26 66z"/>
        <path d="M1380 1045 c0 -9 10 -15 26 -15 19 0 24 -4 20 -17 -9 -32 -25 -127
-32 -186 -8 -68 4 -87 52 -87 24 0 34 5 34 15 0 10 -10 15 -31 15 l-31 0 7 53
c3 28 13 87 21 130 9 43 13 85 10 93 -8 20 -76 19 -76 -1z"/>
        <path d="M992 1039 c2 -7 10 -15 17 -17 8 -3 12 1 9 9 -2 7 -10 15 -17 17 -8
3 -12 -1 -9 -9z"/>
        <path d="M528 1013 c-10 -3 -18 -9 -18 -14 0 -12 37 -12 45 0 7 12 -5 19 -27
14z"/>
        <path d="M950 940 c0 -13 28 -25 38 -16 3 4 0 11 -8 16 -20 13 -30 12 -30 0z"/>
        <path d="M570 900 c-8 -5 -11 -12 -7 -16 4 -4 13 -2 19 4 15 15 7 24 -12 12z"/>
        <path d="M630 825 c-7 -9 -10 -18 -7 -22 8 -7 37 15 37 28 0 14 -16 11 -30 -6z"/>
    </g>
</svg>
